<svg width="24" height="24" viewBox="0 0 24 24" fill="none" xmlns="http://www.w3.org/2000/svg">
<path d="M21.75 18.75H20.25V17.25H21V14.25H18V15H16.5V13.5C16.5 13.3011 16.579 13.1103 16.7197 12.9697C16.8603 12.829 17.0511 12.75 17.25 12.75H21.75C21.9489 12.75 22.1397 12.829 22.2803 12.9697C22.421 13.1103 22.5 13.3011 22.5 13.5V18C22.5 18.1989 22.421 18.3897 22.2803 18.5303C22.1397 18.671 21.9489 18.75 21.75 18.75Z" fill="#F24E1E"/>
<path d="M18 22.4999H13.5C13.3011 22.4999 13.1103 22.4209 12.9697 22.2803C12.829 22.1396 12.75 21.9488 12.75 21.7499V17.2499C12.75 17.051 12.829 16.8602 12.9697 16.7196C13.1103 16.5789 13.3011 16.4999 13.5 16.4999H18C18.1989 16.4999 18.3897 16.5789 18.5303 16.7196C18.671 16.8602 18.75 17.051 18.75 17.2499V21.7499C18.75 21.9488 18.671 22.1396 18.5303 22.2803C18.3897 22.4209 18.1989 22.4999 18 22.4999ZM14.25 20.9999H17.25V17.9999H14.25V20.9999ZM11.25 14.8934C10.7081 14.7522 10.2166 14.4618 9.83142 14.0553C9.44623 13.6488 9.18274 13.1425 9.07086 12.5937C8.95899 12.045 9.00322 11.4759 9.19853 10.951C9.39385 10.4262 9.73242 9.96659 10.1758 9.62448C10.6192 9.28237 11.1496 9.07144 11.7068 9.01563C12.2641 8.95982 12.8258 9.06138 13.3282 9.30877C13.8306 9.55616 14.2536 9.93947 14.5491 10.4152C14.8446 10.8909 15.0008 11.4399 15 11.9999H16.5C16.5009 11.1418 16.2563 10.3013 15.7953 9.57752C15.3342 8.85377 14.6758 8.27694 13.8977 7.91506C13.1195 7.55318 12.2542 7.42133 11.4036 7.53506C10.553 7.64879 9.75271 8.00336 9.097 8.55696C8.4413 9.11056 7.95757 9.8401 7.70283 10.6596C7.4481 11.479 7.43299 12.3543 7.65928 13.182C7.88558 14.0098 8.34384 14.7556 8.98005 15.3315C9.61625 15.9074 10.4039 16.2894 11.25 16.4324V14.8934Z" fill="#F24E1E"/>
<path d="M21.6674 10.1625L19.9349 11.685L18.8699 10.62L20.6774 9.03L18.9074 5.97L16.3274 6.84C15.7231 6.33695 15.0386 5.93892 14.3024 5.6625L13.7699 3H10.2299L9.69742 5.6625C8.95538 5.93119 8.26713 6.32992 7.66492 6.84L5.09242 5.97L3.32242 9.03L5.36242 10.8225C5.22367 11.5988 5.22367 12.3937 5.36242 13.17L3.32242 14.97L5.09242 18.03L7.67242 17.16C8.27678 17.663 8.96129 18.0611 9.69742 18.3375L10.2299 21H11.2499V22.5H10.2299C9.88307 22.4997 9.54704 22.3792 9.27902 22.1591C9.011 21.9389 8.82756 21.6327 8.75992 21.2925L8.37742 19.4025C8.03787 19.2369 7.70965 19.049 7.39492 18.84L5.57242 19.455C5.41745 19.5054 5.2554 19.5308 5.09242 19.53C4.82897 19.5318 4.5698 19.4633 4.34171 19.3314C4.11361 19.1996 3.92485 19.0092 3.79492 18.78L2.02492 15.72C1.84987 15.4193 1.78481 15.067 1.84091 14.7236C1.89701 14.3801 2.07077 14.0669 2.33242 13.8375L3.77242 12.5775C3.75742 12.3825 3.74992 12.195 3.74992 12C3.74992 11.805 3.76492 11.6175 3.77992 11.43L2.33242 10.1625C2.07077 9.93309 1.89701 9.61985 1.84091 9.27642C1.78481 8.93299 1.84987 8.58074 2.02492 8.28L3.79492 5.22C3.92485 4.9908 4.11361 4.80044 4.34171 4.66859C4.5698 4.53675 4.82897 4.46819 5.09242 4.47C5.2554 4.46925 5.41745 4.49457 5.57242 4.545L7.38742 5.16C7.70472 4.95098 8.03544 4.76307 8.37742 4.5975L8.75992 2.7075C8.82756 2.36731 9.011 2.06107 9.27902 1.84091C9.54704 1.62075 9.88307 1.50028 10.2299 1.5H13.7699C14.1168 1.50028 14.4528 1.62075 14.7208 1.84091C14.9888 2.06107 15.1723 2.36731 15.2399 2.7075L15.6224 4.5975C15.962 4.76311 16.2902 4.95102 16.6049 5.16L18.4274 4.545C18.5824 4.49457 18.7444 4.46925 18.9074 4.47C19.1709 4.46819 19.43 4.53675 19.6581 4.66859C19.8862 4.80044 20.075 4.9908 20.2049 5.22L21.9749 8.28C22.15 8.58074 22.215 8.93299 22.1589 9.27642C22.1028 9.61985 21.9291 9.93309 21.6674 10.1625Z" fill="#F24E1E"/>
</svg>
