<svg width="125" height="40" viewBox="0 0 125 40" fill="none" xmlns="http://www.w3.org/2000/svg">
<rect x="0.427734" width="124.572" height="40" rx="5" fill="white"/>
<path d="M57.2568 15.228V16.81H53.1828V19.316H56.3048V20.87H53.1828V25H51.2228V15.228H57.2568ZM60.6067 18.448C60.8587 18.0373 61.1853 17.7153 61.5867 17.482C61.9973 17.2487 62.464 17.132 62.9867 17.132V19.19H62.4687C61.8527 19.19 61.386 19.3347 61.0687 19.624C60.7607 19.9133 60.6067 20.4173 60.6067 21.136V25H58.6467V17.244H60.6067V18.448ZM63.8028 21.094C63.8028 20.31 63.9568 19.6147 64.2648 19.008C64.5822 18.4013 65.0068 17.9347 65.5388 17.608C66.0802 17.2813 66.6822 17.118 67.3448 17.118C67.9235 17.118 68.4275 17.2347 68.8568 17.468C69.2955 17.7013 69.6455 17.9953 69.9068 18.35V17.244H71.8808V25H69.9068V23.866C69.6548 24.23 69.3048 24.5333 68.8568 24.776C68.4182 25.0093 67.9095 25.126 67.3308 25.126C66.6775 25.126 66.0802 24.958 65.5388 24.622C65.0068 24.286 64.5822 23.8147 64.2648 23.208C63.9568 22.592 63.8028 21.8873 63.8028 21.094ZM69.9068 21.122C69.9068 20.646 69.8135 20.24 69.6268 19.904C69.4402 19.5587 69.1882 19.2973 68.8708 19.12C68.5535 18.9333 68.2128 18.84 67.8488 18.84C67.4848 18.84 67.1488 18.9287 66.8408 19.106C66.5328 19.2833 66.2808 19.5447 66.0848 19.89C65.8982 20.226 65.8048 20.6273 65.8048 21.094C65.8048 21.5607 65.8982 21.9713 66.0848 22.326C66.2808 22.6713 66.5328 22.9373 66.8408 23.124C67.1582 23.3107 67.4942 23.404 67.8488 23.404C68.2128 23.404 68.5535 23.3153 68.8708 23.138C69.1882 22.9513 69.4402 22.69 69.6268 22.354C69.8135 22.0087 69.9068 21.598 69.9068 21.122ZM78.0931 17.132C79.0171 17.132 79.7638 17.426 80.3331 18.014C80.9024 18.5927 81.1871 19.4047 81.1871 20.45V25H79.2271V20.716C79.2271 20.1 79.0731 19.6287 78.7651 19.302C78.4571 18.966 78.0371 18.798 77.5051 18.798C76.9638 18.798 76.5344 18.966 76.2171 19.302C75.9091 19.6287 75.7551 20.1 75.7551 20.716V25H73.7951V17.244H75.7551V18.21C76.0164 17.874 76.3478 17.6127 76.7491 17.426C77.1598 17.23 77.6078 17.132 78.0931 17.132ZM82.547 21.122C82.547 20.3193 82.7103 19.6193 83.037 19.022C83.3636 18.4153 83.8163 17.9487 84.395 17.622C84.9736 17.286 85.6363 17.118 86.383 17.118C87.3443 17.118 88.1376 17.3607 88.763 17.846C89.3976 18.322 89.8223 18.994 90.037 19.862H87.923C87.811 19.526 87.6196 19.2647 87.349 19.078C87.0876 18.882 86.761 18.784 86.369 18.784C85.809 18.784 85.3656 18.9893 85.039 19.4C84.7123 19.8013 84.549 20.3753 84.549 21.122C84.549 21.8593 84.7123 22.4333 85.039 22.844C85.3656 23.2453 85.809 23.446 86.369 23.446C87.1623 23.446 87.6803 23.0913 87.923 22.382H90.037C89.8223 23.222 89.3976 23.8893 88.763 24.384C88.1283 24.8787 87.335 25.126 86.383 25.126C85.6363 25.126 84.9736 24.9627 84.395 24.636C83.8163 24.3 83.3636 23.8333 83.037 23.236C82.7103 22.6293 82.547 21.9247 82.547 21.122ZM98.6828 20.954C98.6828 21.234 98.6642 21.486 98.6268 21.71H92.9568C93.0035 22.27 93.1995 22.7087 93.5448 23.026C93.8902 23.3433 94.3148 23.502 94.8188 23.502C95.5468 23.502 96.0648 23.1893 96.3728 22.564H98.4868C98.2628 23.3107 97.8335 23.9267 97.1988 24.412C96.5642 24.888 95.7848 25.126 94.8608 25.126C94.1142 25.126 93.4422 24.9627 92.8448 24.636C92.2568 24.3 91.7948 23.8287 91.4588 23.222C91.1322 22.6153 90.9688 21.9153 90.9688 21.122C90.9688 20.3193 91.1322 19.6147 91.4588 19.008C91.7855 18.4013 92.2428 17.9347 92.8308 17.608C93.4188 17.2813 94.0955 17.118 94.8608 17.118C95.5982 17.118 96.2562 17.2767 96.8348 17.594C97.4228 17.9113 97.8755 18.364 98.1928 18.952C98.5195 19.5307 98.6828 20.198 98.6828 20.954ZM96.6528 20.394C96.6435 19.89 96.4615 19.4887 96.1068 19.19C95.7522 18.882 95.3182 18.728 94.8048 18.728C94.3195 18.728 93.9088 18.8773 93.5728 19.176C93.2462 19.4653 93.0455 19.8713 92.9708 20.394H96.6528Z" fill="#FD5308"/>
<path d="M34.6852 27L34.3531 26.64C34.1454 26.44 29.2871 20.92 29.2871 17.6C29.2871 14.72 31.6955 12.4 34.6852 12.4C37.675 12.4 40.0834 14.72 40.0834 17.6C40.0834 20.92 35.2251 26.44 35.0174 26.68L34.6852 27ZM34.6852 13.2C32.1523 13.2 30.1176 15.16 30.1176 17.6C30.1176 20.16 33.6056 24.48 34.6852 25.76C35.7649 24.48 39.2529 20.16 39.2529 17.6C39.2529 15.16 37.2182 13.2 34.6852 13.2Z" fill="#FD5308"/>
<path d="M34.6856 19.6C33.5229 19.6 32.6094 18.72 32.6094 17.6C32.6094 16.48 33.5229 15.6 34.6856 15.6C35.8483 15.6 36.7618 16.48 36.7618 17.6C36.7618 18.72 35.8483 19.6 34.6856 19.6ZM34.6856 16.4C33.9797 16.4 33.4399 16.92 33.4399 17.6C33.4399 18.28 33.9797 18.8 34.6856 18.8C35.3915 18.8 35.9313 18.28 35.9313 17.6C35.9313 16.92 35.3915 16.4 34.6856 16.4Z" fill="#FD5308"/>
</svg>
