<svg width="114" height="21" viewBox="0 0 114 21" fill="none" xmlns="http://www.w3.org/2000/svg">
<path d="M29.6564 15.098C28.9751 15.098 28.3591 14.9813 27.8084 14.748C27.2671 14.5147 26.8377 14.1787 26.5204 13.74C26.2031 13.3013 26.0397 12.7833 26.0304 12.186H28.1304C28.1584 12.5873 28.2984 12.9047 28.5504 13.138C28.8117 13.3713 29.1664 13.488 29.6144 13.488C30.0717 13.488 30.4311 13.3807 30.6924 13.166C30.9537 12.942 31.0844 12.6527 31.0844 12.298C31.0844 12.0087 30.9957 11.7707 30.8184 11.584C30.6411 11.3973 30.4171 11.2527 30.1464 11.15C29.8851 11.038 29.5211 10.9167 29.0544 10.786C28.4197 10.5993 27.9017 10.4173 27.5004 10.24C27.1084 10.0533 26.7677 9.778 26.4784 9.414C26.1984 9.04067 26.0584 8.546 26.0584 7.93C26.0584 7.35133 26.2031 6.84733 26.4924 6.418C26.7817 5.98867 27.1877 5.662 27.7104 5.438C28.2331 5.20467 28.8304 5.088 29.5024 5.088C30.5104 5.088 31.3271 5.33533 31.9524 5.83C32.5871 6.31533 32.9371 6.99667 33.0024 7.874H30.8464C30.8277 7.538 30.6831 7.26267 30.4124 7.048C30.1511 6.824 29.8011 6.712 29.3624 6.712C28.9797 6.712 28.6717 6.81 28.4384 7.006C28.2144 7.202 28.1024 7.48667 28.1024 7.86C28.1024 8.12133 28.1864 8.34067 28.3544 8.518C28.5317 8.686 28.7464 8.826 28.9984 8.938C29.2597 9.04067 29.6237 9.162 30.0904 9.302C30.7251 9.48867 31.2431 9.67533 31.6444 9.862C32.0457 10.0487 32.3911 10.3287 32.6804 10.702C32.9697 11.0753 33.1144 11.5653 33.1144 12.172C33.1144 12.6947 32.9791 13.18 32.7084 13.628C32.4377 14.076 32.0411 14.4353 31.5184 14.706C30.9957 14.9673 30.3751 15.098 29.6564 15.098ZM38.2577 15.126C37.511 15.126 36.839 14.9627 36.2417 14.636C35.6443 14.3 35.173 13.8287 34.8277 13.222C34.4917 12.6153 34.3237 11.9153 34.3237 11.122C34.3237 10.3287 34.4963 9.62867 34.8417 9.022C35.1963 8.41533 35.677 7.94867 36.2837 7.622C36.8903 7.286 37.567 7.118 38.3137 7.118C39.0603 7.118 39.737 7.286 40.3437 7.622C40.9503 7.94867 41.4263 8.41533 41.7717 9.022C42.1263 9.62867 42.3037 10.3287 42.3037 11.122C42.3037 11.9153 42.1217 12.6153 41.7577 13.222C41.403 13.8287 40.9177 14.3 40.3017 14.636C39.695 14.9627 39.0137 15.126 38.2577 15.126ZM38.2577 13.418C38.6123 13.418 38.9437 13.334 39.2517 13.166C39.569 12.9887 39.821 12.7273 40.0077 12.382C40.1943 12.0367 40.2877 11.6167 40.2877 11.122C40.2877 10.3847 40.0917 9.82 39.6997 9.428C39.317 9.02667 38.8457 8.826 38.2857 8.826C37.7257 8.826 37.2543 9.02667 36.8717 9.428C36.4983 9.82 36.3117 10.3847 36.3117 11.122C36.3117 11.8593 36.4937 12.4287 36.8577 12.83C37.231 13.222 37.6977 13.418 38.2577 13.418ZM51.0634 7.244V15H49.0894V14.02C48.8374 14.356 48.5061 14.622 48.0954 14.818C47.6941 15.0047 47.2554 15.098 46.7794 15.098C46.1727 15.098 45.6361 14.972 45.1694 14.72C44.7027 14.4587 44.3341 14.0807 44.0634 13.586C43.8021 13.082 43.6714 12.4847 43.6714 11.794V7.244H45.6314V11.514C45.6314 12.13 45.7854 12.606 46.0934 12.942C46.4014 13.2687 46.8214 13.432 47.3534 13.432C47.8947 13.432 48.3194 13.2687 48.6274 12.942C48.9354 12.606 49.0894 12.13 49.0894 11.514V7.244H51.0634ZM55.2793 8.854V12.606C55.2793 12.8673 55.3399 13.0587 55.4613 13.18C55.5919 13.292 55.8066 13.348 56.1053 13.348H57.0153V15H55.7833C54.1313 15 53.3053 14.1973 53.3053 12.592V8.854H52.3813V7.244H53.3053V5.326H55.2793V7.244H57.0153V8.854H55.2793ZM62.793 7.132C63.381 7.132 63.9037 7.26267 64.361 7.524C64.8183 7.776 65.173 8.154 65.425 8.658C65.6863 9.15267 65.817 9.75 65.817 10.45V15H63.857V10.716C63.857 10.1 63.703 9.62867 63.395 9.302C63.087 8.966 62.667 8.798 62.135 8.798C61.5937 8.798 61.1643 8.966 60.847 9.302C60.539 9.62867 60.385 10.1 60.385 10.716V15H58.425V4.64H60.385V8.21C60.637 7.874 60.973 7.61267 61.393 7.426C61.813 7.23 62.2797 7.132 62.793 7.132ZM77.0088 13.138H73.1168L72.4728 15H70.4148L73.9288 5.214H76.2108L79.7248 15H77.6528L77.0088 13.138ZM76.4768 11.57L75.0628 7.482L73.6488 11.57H76.4768ZM84.5943 8.854H83.2363V15H81.2483V8.854H80.3663V7.244H81.2483V6.852C81.2483 5.9 81.5189 5.2 82.0603 4.752C82.6016 4.304 83.4183 4.094 84.5103 4.122V5.774C84.0343 5.76467 83.7029 5.844 83.5163 6.012C83.3296 6.18 83.2363 6.48333 83.2363 6.922V7.244H84.5943V8.854ZM87.8244 8.448C88.0764 8.03733 88.4031 7.71533 88.8044 7.482C89.2151 7.24867 89.6818 7.132 90.2044 7.132V9.19H89.6864C89.0704 9.19 88.6038 9.33467 88.2864 9.624C87.9784 9.91333 87.8244 10.4173 87.8244 11.136V15H85.8644V7.244H87.8244V8.448ZM92.5186 6.32C92.1733 6.32 91.8839 6.21267 91.6506 5.998C91.4266 5.774 91.3146 5.49867 91.3146 5.172C91.3146 4.84533 91.4266 4.57467 91.6506 4.36C91.8839 4.136 92.1733 4.024 92.5186 4.024C92.8639 4.024 93.1486 4.136 93.3726 4.36C93.6059 4.57467 93.7226 4.84533 93.7226 5.172C93.7226 5.49867 93.6059 5.774 93.3726 5.998C93.1486 6.21267 92.8639 6.32 92.5186 6.32ZM93.4846 7.244V15H91.5246V7.244H93.4846ZM94.9171 11.122C94.9171 10.3193 95.0804 9.61933 95.4071 9.022C95.7337 8.41533 96.1864 7.94867 96.7651 7.622C97.3437 7.286 98.0064 7.118 98.7531 7.118C99.7144 7.118 100.508 7.36067 101.133 7.846C101.768 8.322 102.192 8.994 102.407 9.862H100.293C100.181 9.526 99.9897 9.26467 99.7191 9.078C99.4577 8.882 99.1311 8.784 98.7391 8.784C98.1791 8.784 97.7357 8.98933 97.4091 9.4C97.0824 9.80133 96.9191 10.3753 96.9191 11.122C96.9191 11.8593 97.0824 12.4333 97.4091 12.844C97.7357 13.2453 98.1791 13.446 98.7391 13.446C99.5324 13.446 100.05 13.0913 100.293 12.382H102.407C102.192 13.222 101.768 13.8893 101.133 14.384C100.498 14.8787 99.7051 15.126 98.7531 15.126C98.0064 15.126 97.3437 14.9627 96.7651 14.636C96.1864 14.3 95.7337 13.8333 95.4071 13.236C95.0804 12.6293 94.9171 11.9247 94.9171 11.122ZM103.339 11.094C103.339 10.31 103.493 9.61467 103.801 9.008C104.118 8.40133 104.543 7.93467 105.075 7.608C105.616 7.28133 106.218 7.118 106.881 7.118C107.46 7.118 107.964 7.23467 108.393 7.468C108.832 7.70133 109.182 7.99533 109.443 8.35V7.244H111.417V15H109.443V13.866C109.191 14.23 108.841 14.5333 108.393 14.776C107.954 15.0093 107.446 15.126 106.867 15.126C106.214 15.126 105.616 14.958 105.075 14.622C104.543 14.286 104.118 13.8147 103.801 13.208C103.493 12.592 103.339 11.8873 103.339 11.094ZM109.443 11.122C109.443 10.646 109.35 10.24 109.163 9.904C108.976 9.55867 108.724 9.29733 108.407 9.12C108.09 8.93333 107.749 8.84 107.385 8.84C107.021 8.84 106.685 8.92867 106.377 9.106C106.069 9.28333 105.817 9.54467 105.621 9.89C105.434 10.226 105.341 10.6273 105.341 11.094C105.341 11.5607 105.434 11.9713 105.621 12.326C105.817 12.6713 106.069 12.9373 106.377 13.124C106.694 13.3107 107.03 13.404 107.385 13.404C107.749 13.404 108.09 13.3153 108.407 13.138C108.724 12.9513 108.976 12.69 109.163 12.354C109.35 12.0087 109.443 11.598 109.443 11.122Z" fill="#FD5308"/>
<path d="M10.3627 17L10.0437 16.64C9.84431 16.44 5.17871 10.92 5.17871 7.60002C5.17871 4.72002 7.49157 2.40002 10.3627 2.40002C13.2339 2.40002 15.5467 4.72002 15.5467 7.60002C15.5467 10.92 10.8811 16.44 10.6817 16.68L10.3627 17ZM10.3627 3.20002C7.93022 3.20002 5.97625 5.16002 5.97625 7.60002C5.97625 10.16 9.32591 14.48 10.3627 15.76C11.3995 14.48 14.7492 10.16 14.7492 7.60002C14.7492 5.16002 12.7952 3.20002 10.3627 3.20002Z" fill="#FD5308"/>
<path d="M10.363 9.59997C9.24643 9.59997 8.36914 8.71997 8.36914 7.59997C8.36914 6.47998 9.24643 5.59998 10.363 5.59998C11.4795 5.59998 12.3568 6.47998 12.3568 7.59997C12.3568 8.71997 11.4795 9.59997 10.363 9.59997ZM10.363 6.39998C9.68508 6.39998 9.16668 6.91998 9.16668 7.59997C9.16668 8.27997 9.68508 8.79997 10.363 8.79997C11.0409 8.79997 11.5593 8.27997 11.5593 7.59997C11.5593 6.91998 11.0409 6.39998 10.363 6.39998Z" fill="#FD5308"/>
</svg>
