<svg width="121" height="40" viewBox="0 0 121 40" fill="none" xmlns="http://www.w3.org/2000/svg">
<rect x="0.430664" width="119.631" height="40" rx="5" fill="white"/>
<path d="M49.3048 25L47.1488 21.192H46.2248V25H44.2648V15.228H47.9328C48.6888 15.228 49.3328 15.3633 49.8648 15.634C50.3968 15.8953 50.7935 16.2547 51.0548 16.712C51.3255 17.16 51.4608 17.664 51.4608 18.224C51.4608 18.868 51.2742 19.4513 50.9008 19.974C50.5275 20.4873 49.9722 20.842 49.2348 21.038L51.5728 25H49.3048ZM46.2248 19.722H47.8628C48.3948 19.722 48.7915 19.596 49.0528 19.344C49.3142 19.0827 49.4448 18.7233 49.4448 18.266C49.4448 17.818 49.3142 17.4727 49.0528 17.23C48.7915 16.978 48.3948 16.852 47.8628 16.852H46.2248V19.722ZM63.9856 17.244L61.7176 25H59.6036L58.1896 19.582L56.7756 25H54.6476L52.3656 17.244H54.3536L55.7256 23.152L57.2096 17.244H59.2816L60.7376 23.138L62.1096 17.244H63.9856ZM64.5421 21.094C64.5421 20.31 64.6961 19.6147 65.0041 19.008C65.3214 18.4013 65.7461 17.9347 66.2781 17.608C66.8194 17.2813 67.4214 17.118 68.0841 17.118C68.6627 17.118 69.1667 17.2347 69.5961 17.468C70.0347 17.7013 70.3847 17.9953 70.6461 18.35V17.244H72.6201V25H70.6461V23.866C70.3941 24.23 70.0441 24.5333 69.5961 24.776C69.1574 25.0093 68.6487 25.126 68.0701 25.126C67.4167 25.126 66.8194 24.958 66.2781 24.622C65.7461 24.286 65.3214 23.8147 65.0041 23.208C64.6961 22.592 64.5421 21.8873 64.5421 21.094ZM70.6461 21.122C70.6461 20.646 70.5527 20.24 70.3661 19.904C70.1794 19.5587 69.9274 19.2973 69.6101 19.12C69.2927 18.9333 68.9521 18.84 68.5881 18.84C68.2241 18.84 67.8881 18.9287 67.5801 19.106C67.2721 19.2833 67.0201 19.5447 66.8241 19.89C66.6374 20.226 66.5441 20.6273 66.5441 21.094C66.5441 21.5607 66.6374 21.9713 66.8241 22.326C67.0201 22.6713 67.2721 22.9373 67.5801 23.124C67.8974 23.3107 68.2334 23.404 68.5881 23.404C68.9521 23.404 69.2927 23.3153 69.6101 23.138C69.9274 22.9513 70.1794 22.69 70.3661 22.354C70.5527 22.0087 70.6461 21.598 70.6461 21.122ZM78.8324 17.132C79.7564 17.132 80.503 17.426 81.0724 18.014C81.6417 18.5927 81.9264 19.4047 81.9264 20.45V25H79.9664V20.716C79.9664 20.1 79.8124 19.6287 79.5044 19.302C79.1964 18.966 78.7764 18.798 78.2444 18.798C77.703 18.798 77.2737 18.966 76.9564 19.302C76.6484 19.6287 76.4944 20.1 76.4944 20.716V25H74.5344V17.244H76.4944V18.21C76.7557 17.874 77.087 17.6127 77.4884 17.426C77.899 17.23 78.347 17.132 78.8324 17.132ZM83.2862 21.094C83.2862 20.31 83.4402 19.6147 83.7482 19.008C84.0656 18.4013 84.4949 17.9347 85.0362 17.608C85.5776 17.2813 86.1796 17.118 86.8422 17.118C87.3462 17.118 87.8269 17.23 88.2842 17.454C88.7416 17.6687 89.1056 17.958 89.3762 18.322V14.64H91.3642V25H89.3762V23.852C89.1336 24.2347 88.7929 24.5427 88.3542 24.776C87.9156 25.0093 87.4069 25.126 86.8282 25.126C86.1749 25.126 85.5776 24.958 85.0362 24.622C84.4949 24.286 84.0656 23.8147 83.7482 23.208C83.4402 22.592 83.2862 21.8873 83.2862 21.094ZM89.3902 21.122C89.3902 20.646 89.2969 20.24 89.1102 19.904C88.9236 19.5587 88.6716 19.2973 88.3542 19.12C88.0369 18.9333 87.6962 18.84 87.3322 18.84C86.9682 18.84 86.6322 18.9287 86.3242 19.106C86.0162 19.2833 85.7642 19.5447 85.5682 19.89C85.3816 20.226 85.2882 20.6273 85.2882 21.094C85.2882 21.5607 85.3816 21.9713 85.5682 22.326C85.7642 22.6713 86.0162 22.9373 86.3242 23.124C86.6416 23.3107 86.9776 23.404 87.3322 23.404C87.6962 23.404 88.0369 23.3153 88.3542 23.138C88.6716 22.9513 88.9236 22.69 89.1102 22.354C89.2969 22.0087 89.3902 21.598 89.3902 21.122ZM92.7745 21.094C92.7745 20.31 92.9285 19.6147 93.2365 19.008C93.5538 18.4013 93.9785 17.9347 94.5105 17.608C95.0518 17.2813 95.6538 17.118 96.3165 17.118C96.8952 17.118 97.3992 17.2347 97.8285 17.468C98.2672 17.7013 98.6172 17.9953 98.8785 18.35V17.244H100.853V25H98.8785V23.866C98.6265 24.23 98.2765 24.5333 97.8285 24.776C97.3898 25.0093 96.8812 25.126 96.3025 25.126C95.6492 25.126 95.0518 24.958 94.5105 24.622C93.9785 24.286 93.5538 23.8147 93.2365 23.208C92.9285 22.592 92.7745 21.8873 92.7745 21.094ZM98.8785 21.122C98.8785 20.646 98.7852 20.24 98.5985 19.904C98.4118 19.5587 98.1598 19.2973 97.8425 19.12C97.5252 18.9333 97.1845 18.84 96.8205 18.84C96.4565 18.84 96.1205 18.9287 95.8125 19.106C95.5045 19.2833 95.2525 19.5447 95.0565 19.89C94.8698 20.226 94.7765 20.6273 94.7765 21.094C94.7765 21.5607 94.8698 21.9713 95.0565 22.326C95.2525 22.6713 95.5045 22.9373 95.8125 23.124C96.1298 23.3107 96.4658 23.404 96.8205 23.404C97.1845 23.404 97.5252 23.3153 97.8425 23.138C98.1598 22.9513 98.4118 22.69 98.5985 22.354C98.7852 22.0087 98.8785 21.598 98.8785 21.122Z" fill="#FD5308"/>
<path d="M28.3451 27L28.0261 26.64C27.8267 26.44 23.1611 20.92 23.1611 17.6C23.1611 14.72 25.474 12.4 28.3451 12.4C31.2163 12.4 33.5291 14.72 33.5291 17.6C33.5291 20.92 28.8635 26.44 28.6641 26.68L28.3451 27ZM28.3451 13.2C25.9126 13.2 23.9587 15.16 23.9587 17.6C23.9587 20.16 27.3083 24.48 28.3451 25.76C29.3819 24.48 32.7316 20.16 32.7316 17.6C32.7316 15.16 30.7776 13.2 28.3451 13.2Z" fill="#FD5308"/>
<path d="M28.3454 19.6C27.2289 19.6 26.3516 18.72 26.3516 17.6C26.3516 16.48 27.2289 15.6 28.3454 15.6C29.462 15.6 30.3393 16.48 30.3393 17.6C30.3393 18.72 29.462 19.6 28.3454 19.6ZM28.3454 16.4C27.6675 16.4 27.1491 16.92 27.1491 17.6C27.1491 18.28 27.6675 18.8 28.3454 18.8C29.0233 18.8 29.5417 18.28 29.5417 17.6C29.5417 16.92 29.0233 16.4 28.3454 16.4Z" fill="#FD5308"/>
</svg>
