<svg width="79" height="21" viewBox="0 0 79 21" fill="none" xmlns="http://www.w3.org/2000/svg">
<path d="M28.2483 13.446H31.4683V15H26.2883V5.228H28.2483V13.446ZM36.158 15.126C35.4114 15.126 34.7394 14.9627 34.142 14.636C33.5447 14.3 33.0734 13.8287 32.728 13.222C32.392 12.6153 32.224 11.9153 32.224 11.122C32.224 10.3287 32.3967 9.62867 32.742 9.022C33.0967 8.41533 33.5774 7.94867 34.184 7.622C34.7907 7.286 35.4674 7.118 36.214 7.118C36.9607 7.118 37.6374 7.286 38.244 7.622C38.8507 7.94867 39.3267 8.41533 39.672 9.022C40.0267 9.62867 40.204 10.3287 40.204 11.122C40.204 11.9153 40.022 12.6153 39.658 13.222C39.3034 13.8287 38.818 14.3 38.202 14.636C37.5954 14.9627 36.914 15.126 36.158 15.126ZM36.158 13.418C36.5127 13.418 36.844 13.334 37.152 13.166C37.4694 12.9887 37.7214 12.7273 37.908 12.382C38.0947 12.0367 38.188 11.6167 38.188 11.122C38.188 10.3847 37.992 9.82 37.6 9.428C37.2174 9.02667 36.746 8.826 36.186 8.826C35.626 8.826 35.1547 9.02667 34.772 9.428C34.3987 9.82 34.212 10.3847 34.212 11.122C34.212 11.8593 34.394 12.4287 34.758 12.83C35.1314 13.222 35.598 13.418 36.158 13.418ZM45.9398 7.132C46.8638 7.132 47.6104 7.426 48.1798 8.014C48.7491 8.59267 49.0338 9.40467 49.0338 10.45V15H47.0738V10.716C47.0738 10.1 46.9198 9.62867 46.6118 9.302C46.3038 8.966 45.8838 8.798 45.3518 8.798C44.8104 8.798 44.3811 8.966 44.0638 9.302C43.7558 9.62867 43.6018 10.1 43.6018 10.716V15H41.6418V7.244H43.6018V8.21C43.8631 7.874 44.1944 7.61267 44.5958 7.426C45.0064 7.23 45.4544 7.132 45.9398 7.132ZM50.3936 11.094C50.3936 10.31 50.5476 9.61467 50.8556 9.008C51.173 8.40133 51.6023 7.93467 52.1436 7.608C52.685 7.28133 53.287 7.118 53.9496 7.118C54.4536 7.118 54.9343 7.23 55.3916 7.454C55.849 7.66867 56.213 7.958 56.4836 8.322V4.64H58.4716V15H56.4836V13.852C56.241 14.2347 55.9003 14.5427 55.4616 14.776C55.023 15.0093 54.5143 15.126 53.9356 15.126C53.2823 15.126 52.685 14.958 52.1436 14.622C51.6023 14.286 51.173 13.8147 50.8556 13.208C50.5476 12.592 50.3936 11.8873 50.3936 11.094ZM56.4976 11.122C56.4976 10.646 56.4043 10.24 56.2176 9.904C56.031 9.55867 55.779 9.29733 55.4616 9.12C55.1443 8.93333 54.8036 8.84 54.4396 8.84C54.0756 8.84 53.7396 8.92867 53.4316 9.106C53.1236 9.28333 52.8716 9.54467 52.6756 9.89C52.489 10.226 52.3956 10.6273 52.3956 11.094C52.3956 11.5607 52.489 11.9713 52.6756 12.326C52.8716 12.6713 53.1236 12.9373 53.4316 13.124C53.749 13.3107 54.085 13.404 54.4396 13.404C54.8036 13.404 55.1443 13.3153 55.4616 13.138C55.779 12.9513 56.031 12.69 56.2176 12.354C56.4043 12.0087 56.4976 11.598 56.4976 11.122ZM63.8299 15.126C63.0833 15.126 62.4113 14.9627 61.8139 14.636C61.2166 14.3 60.7453 13.8287 60.3999 13.222C60.0639 12.6153 59.8959 11.9153 59.8959 11.122C59.8959 10.3287 60.0686 9.62867 60.4139 9.022C60.7686 8.41533 61.2493 7.94867 61.8559 7.622C62.4626 7.286 63.1393 7.118 63.8859 7.118C64.6326 7.118 65.3093 7.286 65.9159 7.622C66.5226 7.94867 66.9986 8.41533 67.3439 9.022C67.6986 9.62867 67.8759 10.3287 67.8759 11.122C67.8759 11.9153 67.6939 12.6153 67.3299 13.222C66.9753 13.8287 66.4899 14.3 65.8739 14.636C65.2673 14.9627 64.5859 15.126 63.8299 15.126ZM63.8299 13.418C64.1846 13.418 64.5159 13.334 64.8239 13.166C65.1413 12.9887 65.3933 12.7273 65.5799 12.382C65.7666 12.0367 65.8599 11.6167 65.8599 11.122C65.8599 10.3847 65.6639 9.82 65.2719 9.428C64.8893 9.02667 64.4179 8.826 63.8579 8.826C63.2979 8.826 62.8266 9.02667 62.4439 9.428C62.0706 9.82 61.8839 10.3847 61.8839 11.122C61.8839 11.8593 62.0659 12.4287 62.4299 12.83C62.8033 13.222 63.2699 13.418 63.8299 13.418ZM73.6117 7.132C74.5357 7.132 75.2823 7.426 75.8517 8.014C76.421 8.59267 76.7057 9.40467 76.7057 10.45V15H74.7457V10.716C74.7457 10.1 74.5917 9.62867 74.2837 9.302C73.9757 8.966 73.5557 8.798 73.0237 8.798C72.4823 8.798 72.053 8.966 71.7357 9.302C71.4277 9.62867 71.2737 10.1 71.2737 10.716V15H69.3137V7.244H71.2737V8.21C71.535 7.874 71.8663 7.61267 72.2677 7.426C72.6783 7.23 73.1263 7.132 73.6117 7.132Z" fill="#FD5308"/>
<path d="M10.3686 17L10.0496 16.64C9.85017 16.44 5.18457 10.92 5.18457 7.60002C5.18457 4.72002 7.49743 2.40002 10.3686 2.40002C13.2397 2.40002 15.5526 4.72002 15.5526 7.60002C15.5526 10.92 10.887 16.44 10.6876 16.68L10.3686 17ZM10.3686 3.20002C7.93608 3.20002 5.98211 5.16002 5.98211 7.60002C5.98211 10.16 9.33177 14.48 10.3686 15.76C11.4054 14.48 14.755 10.16 14.755 7.60002C14.755 5.16002 12.8011 3.20002 10.3686 3.20002Z" fill="#FD5308"/>
<path d="M10.3688 9.59997C9.25229 9.59997 8.375 8.71997 8.375 7.59997C8.375 6.47998 9.25229 5.59998 10.3688 5.59998C11.4854 5.59998 12.3627 6.47998 12.3627 7.59997C12.3627 8.71997 11.4854 9.59997 10.3688 9.59997ZM10.3688 6.39998C9.69094 6.39998 9.17254 6.91998 9.17254 7.59997C9.17254 8.27997 9.69094 8.79997 10.3688 8.79997C11.0468 8.79997 11.5652 8.27997 11.5652 7.59997C11.5652 6.91998 11.0468 6.39998 10.3688 6.39998Z" fill="#FD5308"/>
</svg>
