<svg width="26" height="25" viewBox="0 0 26 25" fill="none" xmlns="http://www.w3.org/2000/svg">
<path d="M13 21.3945C14.3187 22.4829 16.0285 23.0838 17.8 23.0815C21.7762 23.0815 25 20.1154 25 16.457C25 13.5306 22.9378 11.047 20.0776 10.1709" stroke="#F24E1E" stroke-width="2" stroke-linecap="round" stroke-linejoin="round"/>
<path d="M14.9026 14.0334C15.2236 14.7842 15.4 15.6013 15.4 16.4569C15.4 20.1154 12.1762 23.0815 8.20001 23.0815C4.22321 23.0815 1 20.1154 1 16.4569C1 13.5228 3.073 11.0342 5.94521 10.1636" stroke="#F24E1E" stroke-width="2" stroke-linecap="round" stroke-linejoin="round"/>
<path d="M12.9998 14.2493C16.976 14.2493 20.1998 11.2831 20.1998 7.62463C20.1998 3.96563 16.976 1 12.9998 1C9.02361 1 5.7998 3.96563 5.7998 7.62463C5.7998 11.2831 9.02361 14.2493 12.9998 14.2493Z" stroke="#F24E1E" stroke-width="2" stroke-linecap="round" stroke-linejoin="round"/>
</svg>
