<svg width="121" height="40" viewBox="0 0 121 40" fill="none" xmlns="http://www.w3.org/2000/svg">
<rect x="0.464844" width="119.631" height="40" rx="5" fill="white"/>
<path d="M49.2483 23.446H52.4683V25H47.2883V15.228H49.2483V23.446ZM57.158 25.126C56.4114 25.126 55.7394 24.9627 55.142 24.636C54.5447 24.3 54.0734 23.8287 53.728 23.222C53.392 22.6153 53.224 21.9153 53.224 21.122C53.224 20.3287 53.3967 19.6287 53.742 19.022C54.0967 18.4153 54.5774 17.9487 55.184 17.622C55.7907 17.286 56.4674 17.118 57.214 17.118C57.9607 17.118 58.6374 17.286 59.244 17.622C59.8507 17.9487 60.3267 18.4153 60.672 19.022C61.0267 19.6287 61.204 20.3287 61.204 21.122C61.204 21.9153 61.022 22.6153 60.658 23.222C60.3034 23.8287 59.818 24.3 59.202 24.636C58.5954 24.9627 57.914 25.126 57.158 25.126ZM57.158 23.418C57.5127 23.418 57.844 23.334 58.152 23.166C58.4694 22.9887 58.7214 22.7273 58.908 22.382C59.0947 22.0367 59.188 21.6167 59.188 21.122C59.188 20.3847 58.992 19.82 58.6 19.428C58.2174 19.0267 57.746 18.826 57.186 18.826C56.626 18.826 56.1547 19.0267 55.772 19.428C55.3987 19.82 55.212 20.3847 55.212 21.122C55.212 21.8593 55.394 22.4287 55.758 22.83C56.1314 23.222 56.598 23.418 57.158 23.418ZM66.9398 17.132C67.8638 17.132 68.6104 17.426 69.1798 18.014C69.7491 18.5927 70.0338 19.4047 70.0338 20.45V25H68.0738V20.716C68.0738 20.1 67.9198 19.6287 67.6118 19.302C67.3038 18.966 66.8838 18.798 66.3518 18.798C65.8104 18.798 65.3811 18.966 65.0638 19.302C64.7558 19.6287 64.6018 20.1 64.6018 20.716V25H62.6418V17.244H64.6018V18.21C64.8631 17.874 65.1944 17.6127 65.5958 17.426C66.0064 17.23 66.4544 17.132 66.9398 17.132ZM71.3936 21.094C71.3936 20.31 71.5476 19.6147 71.8556 19.008C72.173 18.4013 72.6023 17.9347 73.1436 17.608C73.685 17.2813 74.287 17.118 74.9496 17.118C75.4536 17.118 75.9343 17.23 76.3916 17.454C76.849 17.6687 77.213 17.958 77.4836 18.322V14.64H79.4716V25H77.4836V23.852C77.241 24.2347 76.9003 24.5427 76.4616 24.776C76.023 25.0093 75.5143 25.126 74.9356 25.126C74.2823 25.126 73.685 24.958 73.1436 24.622C72.6023 24.286 72.173 23.8147 71.8556 23.208C71.5476 22.592 71.3936 21.8873 71.3936 21.094ZM77.4976 21.122C77.4976 20.646 77.4043 20.24 77.2176 19.904C77.031 19.5587 76.779 19.2973 76.4616 19.12C76.1443 18.9333 75.8036 18.84 75.4396 18.84C75.0756 18.84 74.7396 18.9287 74.4316 19.106C74.1236 19.2833 73.8716 19.5447 73.6756 19.89C73.489 20.226 73.3956 20.6273 73.3956 21.094C73.3956 21.5607 73.489 21.9713 73.6756 22.326C73.8716 22.6713 74.1236 22.9373 74.4316 23.124C74.749 23.3107 75.085 23.404 75.4396 23.404C75.8036 23.404 76.1443 23.3153 76.4616 23.138C76.779 22.9513 77.031 22.69 77.2176 22.354C77.4043 22.0087 77.4976 21.598 77.4976 21.122ZM84.8299 25.126C84.0833 25.126 83.4113 24.9627 82.8139 24.636C82.2166 24.3 81.7453 23.8287 81.3999 23.222C81.0639 22.6153 80.8959 21.9153 80.8959 21.122C80.8959 20.3287 81.0686 19.6287 81.4139 19.022C81.7686 18.4153 82.2493 17.9487 82.8559 17.622C83.4626 17.286 84.1393 17.118 84.8859 17.118C85.6326 17.118 86.3093 17.286 86.9159 17.622C87.5226 17.9487 87.9986 18.4153 88.3439 19.022C88.6986 19.6287 88.8759 20.3287 88.8759 21.122C88.8759 21.9153 88.6939 22.6153 88.3299 23.222C87.9753 23.8287 87.4899 24.3 86.8739 24.636C86.2673 24.9627 85.5859 25.126 84.8299 25.126ZM84.8299 23.418C85.1846 23.418 85.5159 23.334 85.8239 23.166C86.1413 22.9887 86.3933 22.7273 86.5799 22.382C86.7666 22.0367 86.8599 21.6167 86.8599 21.122C86.8599 20.3847 86.6639 19.82 86.2719 19.428C85.8893 19.0267 85.4179 18.826 84.8579 18.826C84.2979 18.826 83.8266 19.0267 83.4439 19.428C83.0706 19.82 82.8839 20.3847 82.8839 21.122C82.8839 21.8593 83.0659 22.4287 83.4299 22.83C83.8033 23.222 84.2699 23.418 84.8299 23.418ZM94.6117 17.132C95.5357 17.132 96.2823 17.426 96.8517 18.014C97.421 18.5927 97.7057 19.4047 97.7057 20.45V25H95.7457V20.716C95.7457 20.1 95.5917 19.6287 95.2837 19.302C94.9757 18.966 94.5557 18.798 94.0237 18.798C93.4823 18.798 93.053 18.966 92.7357 19.302C92.4277 19.6287 92.2737 20.1 92.2737 20.716V25H90.3137V17.244H92.2737V18.21C92.535 17.874 92.8663 17.6127 93.2677 17.426C93.6783 17.23 94.1263 17.132 94.6117 17.132Z" fill="#FD5308"/>
<path d="M31.3686 27L31.0496 26.64C30.8502 26.44 26.1846 20.92 26.1846 17.6C26.1846 14.72 28.4974 12.4 31.3686 12.4C34.2397 12.4 36.5526 14.72 36.5526 17.6C36.5526 20.92 31.887 26.44 31.6876 26.68L31.3686 27ZM31.3686 13.2C28.9361 13.2 26.9821 15.16 26.9821 17.6C26.9821 20.16 30.3318 24.48 31.3686 25.76C32.4054 24.48 35.755 20.16 35.755 17.6C35.755 15.16 33.8011 13.2 31.3686 13.2Z" fill="#FD5308"/>
<path d="M31.3688 19.6C30.2523 19.6 29.375 18.72 29.375 17.6C29.375 16.48 30.2523 15.6 31.3688 15.6C32.4854 15.6 33.3627 16.48 33.3627 17.6C33.3627 18.72 32.4854 19.6 31.3688 19.6ZM31.3688 16.4C30.6909 16.4 30.1725 16.92 30.1725 17.6C30.1725 18.28 30.6909 18.8 31.3688 18.8C32.0468 18.8 32.5652 18.28 32.5652 17.6C32.5652 16.92 32.0468 16.4 31.3688 16.4Z" fill="#FD5308"/>
</svg>
