<svg width="12" height="20" viewBox="0 0 12 20" fill="none" xmlns="http://www.w3.org/2000/svg">
<path d="M11.0603 0.453828C11.3415 0.735119 11.4995 1.11658 11.4995 1.51433C11.4995 1.91207 11.3415 2.29353 11.0603 2.57482L3.63533 9.99981L11.0603 17.4248C11.3336 17.7077 11.4848 18.0866 11.4813 18.4799C11.4779 18.8732 11.3202 19.2494 11.0421 19.5275C10.7639 19.8056 10.3877 19.9634 9.99443 19.9668C9.60113 19.9702 9.22223 19.819 8.93933 19.5458L0.453828 11.0603C0.172621 10.779 0.0146484 10.3976 0.0146484 9.99981C0.0146484 9.60207 0.172621 9.22061 0.453828 8.93931L8.93933 0.453828C9.22062 0.172621 9.60208 0.0146484 9.99983 0.0146484C10.3976 0.0146484 10.779 0.172621 11.0603 0.453828Z" fill="white"/>
</svg>
