<svg width="22" height="19" viewBox="0 0 22 19" fill="none" xmlns="http://www.w3.org/2000/svg">
<path d="M11 2.25001C9.36884 2.25036 7.77438 2.73424 6.41813 3.6405C5.06189 4.54677 4.00473 5.83473 3.38027 7.34164C2.7558 8.84854 2.59206 10.5067 2.90972 12.1067C3.22739 13.7066 4.01221 15.1765 5.165 16.3305C5.37585 16.5418 5.49415 16.8281 5.49387 17.1266C5.49358 17.425 5.37475 17.7112 5.16351 17.922C4.95226 18.1329 4.66591 18.2511 4.36744 18.2509C4.06898 18.2506 3.78285 18.1318 3.572 17.9205C2.10451 16.4517 1.10543 14.5807 0.701061 12.5442C0.29669 10.5077 0.505183 8.39695 1.30018 6.47888C2.09519 4.56082 3.441 2.9215 5.16751 1.76817C6.89402 0.61484 8.92371 -0.000732422 11 -0.000732422C13.0763 -0.000732422 15.106 0.61484 16.8325 1.76817C18.559 2.9215 19.9048 4.56082 20.6998 6.47888C21.4948 8.39695 21.7033 10.5077 21.2989 12.5442C20.8946 14.5807 19.8955 16.4517 18.428 17.9205C18.3243 18.028 18.2002 18.1138 18.063 18.1728C17.9257 18.2318 17.7781 18.2629 17.6287 18.2643C17.4794 18.2657 17.3312 18.2373 17.1929 18.1808C17.0546 18.1243 16.929 18.0408 16.8233 17.9352C16.7176 17.8296 16.6341 17.7041 16.5774 17.5658C16.5208 17.4276 16.4923 17.2795 16.4935 17.1301C16.4947 16.9807 16.5257 16.8331 16.5846 16.6958C16.6435 16.5585 16.7291 16.4343 16.8365 16.3305C17.9894 15.1764 18.7742 13.7064 19.0919 12.1063C19.4095 10.5062 19.2456 8.84791 18.621 7.34094C17.9963 5.83398 16.9389 4.54603 15.5824 3.63988C14.226 2.73373 12.6313 2.25006 11 2.25001ZM11 8.25001C10.4033 8.25001 9.83097 8.48706 9.40901 8.90902C8.98706 9.33097 8.75 9.90327 8.75 10.5C8.75 11.0967 8.98706 11.669 9.40901 12.091C9.83097 12.513 10.4033 12.75 11 12.75C11.5967 12.75 12.169 12.513 12.591 12.091C13.013 11.669 13.25 11.0967 13.25 10.5C13.25 9.90327 13.013 9.33097 12.591 8.90902C12.169 8.48706 11.5967 8.25001 11 8.25001ZM6.875 10.5C6.87498 9.82177 7.0422 9.154 7.36184 8.55581C7.68149 7.95762 8.1437 7.44748 8.70755 7.07055C9.27141 6.69362 9.9195 6.46154 10.5945 6.39486C11.2694 6.32818 11.9504 6.42895 12.5771 6.68826C13.2038 6.94756 13.7569 7.3574 14.1874 7.88148C14.6179 8.40555 14.9126 9.0277 15.0453 9.69283C15.178 10.358 15.1446 11.0455 14.9482 11.6947C14.7517 12.3439 14.3982 12.9346 13.919 13.4145C13.7082 13.6258 13.5899 13.9121 13.5901 14.2106C13.5904 14.509 13.7093 14.7952 13.9205 15.006C14.1317 15.2169 14.4181 15.3351 14.7166 15.3349C15.015 15.3346 15.3012 15.2158 15.512 15.0045C16.4026 14.1126 17.0088 12.9766 17.254 11.7403C17.4992 10.5039 17.3723 9.2226 16.8896 8.05829C16.4068 6.89398 15.5897 5.89892 14.5415 5.19885C13.4933 4.49879 12.2612 4.12515 11.0008 4.12515C9.74031 4.12515 8.50816 4.49879 7.46001 5.19885C6.41186 5.89892 5.59475 6.89398 5.11196 8.05829C4.62916 9.2226 4.50235 10.5039 4.74754 11.7403C4.99273 12.9766 5.59892 14.1126 6.4895 15.0045C6.5925 15.115 6.7167 15.2037 6.8547 15.2652C6.9927 15.3267 7.14167 15.3597 7.29272 15.3624C7.44378 15.3651 7.59382 15.3373 7.7339 15.2807C7.87398 15.2241 8.00123 15.1399 8.10806 15.0331C8.21489 14.9262 8.29911 14.799 8.35569 14.6589C8.41227 14.5188 8.44006 14.3688 8.43739 14.2177C8.43473 14.0667 8.40166 13.9177 8.34018 13.7797C8.27869 13.6417 8.19004 13.5175 8.0795 13.4145C7.69667 13.032 7.39319 12.5776 7.18648 12.0774C6.97978 11.5773 6.87393 11.0412 6.875 10.5Z" fill="#F24E1E"/>
</svg>
