<svg width="22" height="18" viewBox="0 0 22 18" fill="none" xmlns="http://www.w3.org/2000/svg">
<path d="M11 6C11.7956 6 12.5587 5.68393 13.1213 5.12132C13.6839 4.55871 14 3.79565 14 3C14 2.20435 13.6839 1.44129 13.1213 0.87868C12.5587 0.31607 11.7956 0 11 0C10.2044 0 9.44129 0.31607 8.87868 0.87868C8.31607 1.44129 8 2.20435 8 3C8 3.79565 8.31607 4.55871 8.87868 5.12132C9.44129 5.68393 10.2044 6 11 6ZM11 4.5C10.6022 4.5 10.2206 4.34196 9.93934 4.06066C9.65804 3.77936 9.5 3.39782 9.5 3C9.5 2.60218 9.65804 2.22064 9.93934 1.93934C10.2206 1.65804 10.6022 1.5 11 1.5C11.3978 1.5 11.7794 1.65804 12.0607 1.93934C12.342 2.22064 12.5 2.60218 12.5 3C12.5 3.39782 12.342 3.77936 12.0607 4.06066C11.7794 4.34196 11.3978 4.5 11 4.5ZM4.25 6C4.84674 6 5.41903 5.76295 5.84099 5.34099C6.26295 4.91903 6.5 4.34674 6.5 3.75C6.5 3.15326 6.26295 2.58097 5.84099 2.15901C5.41903 1.73705 4.84674 1.5 4.25 1.5C3.65326 1.5 3.08097 1.73705 2.65901 2.15901C2.23705 2.58097 2 3.15326 2 3.75C2 4.34674 2.23705 4.91903 2.65901 5.34099C3.08097 5.76295 3.65326 6 4.25 6ZM4.25 4.5C4.05109 4.5 3.86032 4.42098 3.71967 4.28033C3.57902 4.13968 3.5 3.94891 3.5 3.75C3.5 3.55109 3.57902 3.36032 3.71967 3.21967C3.86032 3.07902 4.05109 3 4.25 3C4.44891 3 4.63968 3.07902 4.78033 3.21967C4.92098 3.36032 5 3.55109 5 3.75C5 3.94891 4.92098 4.13968 4.78033 4.28033C4.63968 4.42098 4.44891 4.5 4.25 4.5ZM20 3.75C20 4.04547 19.9418 4.33806 19.8287 4.61104C19.7157 4.88402 19.5499 5.13206 19.341 5.34099C19.1321 5.54992 18.884 5.71566 18.611 5.82873C18.3381 5.9418 18.0455 6 17.75 6C17.4545 6 17.1619 5.9418 16.889 5.82873C16.616 5.71566 16.3679 5.54992 16.159 5.34099C15.9501 5.13206 15.7843 4.88402 15.6713 4.61104C15.5582 4.33806 15.5 4.04547 15.5 3.75C15.5 3.15326 15.7371 2.58097 16.159 2.15901C16.581 1.73705 17.1533 1.5 17.75 1.5C18.3467 1.5 18.919 1.73705 19.341 2.15901C19.7629 2.58097 20 3.15326 20 3.75ZM18.5 3.75C18.5 3.55109 18.421 3.36032 18.2803 3.21967C18.1397 3.07902 17.9489 3 17.75 3C17.5511 3 17.3603 3.07902 17.2197 3.21967C17.079 3.36032 17 3.55109 17 3.75C17 3.94891 17.079 4.13968 17.2197 4.28033C17.3603 4.42098 17.5511 4.5 17.75 4.5C17.9489 4.5 18.1397 4.42098 18.2803 4.28033C18.421 4.13968 18.5 3.94891 18.5 3.75ZM7.229 7.689C7.439 7.569 7.68275 7.5 7.94225 7.5H14.0577C14.3451 7.49947 14.6259 7.58516 14.864 7.746C15.248 8.0055 15.5 8.44425 15.5 8.94225V13.5C15.5 14.6935 15.0259 15.8381 14.182 16.682C13.3381 17.5259 12.1935 18 11 18C9.80653 18 8.66193 17.5259 7.81802 16.682C6.97411 15.8381 6.5 14.6935 6.5 13.5V8.94225C6.5 8.40525 6.79325 7.93725 7.229 7.689ZM8 13.5C8 14.2956 8.31607 15.0587 8.87868 15.6213C9.44129 16.1839 10.2044 16.5 11 16.5C11.7956 16.5 12.5587 16.1839 13.1213 15.6213C13.6839 15.0587 14 14.2956 14 13.5V9H8V13.5ZM5.375 8.94225C5.375 8.4075 5.5385 7.911 5.8175 7.5H2C1.60218 7.5 1.22064 7.65804 0.93934 7.93934C0.658035 8.22064 0.5 8.60218 0.5 9V12.75C0.499807 13.3958 0.666395 14.0307 0.983628 14.5932C1.30086 15.1557 1.75799 15.6268 2.31073 15.9608C2.86347 16.2947 3.49309 16.4803 4.13861 16.4995C4.78412 16.5187 5.42365 16.3708 5.99525 16.0702C5.761 15.6153 5.5904 15.1302 5.48825 14.6287C5.14905 14.8523 4.75564 14.9799 4.34978 14.9979C3.94392 15.0159 3.54075 14.9237 3.18307 14.7311C2.82539 14.5384 2.52655 14.2525 2.31825 13.9037C2.10995 13.5549 1.99998 13.1563 2 12.75V9H5.375V8.94225ZM17.75 16.5C17.1419 16.5009 16.5428 16.3534 16.0048 16.0702C16.239 15.6152 16.4096 15.1302 16.5118 14.6287C16.851 14.8523 17.2444 14.9799 17.6502 14.9979C18.0561 15.0159 18.4592 14.9237 18.8169 14.7311C19.1746 14.5384 19.4735 14.2525 19.6818 13.9037C19.89 13.5549 20 13.1563 20 12.75V9H16.625V8.94225C16.625 8.4075 16.4615 7.911 16.1825 7.5H20C20.3978 7.5 20.7794 7.65804 21.0607 7.93934C21.342 8.22064 21.5 8.60218 21.5 9V12.75C21.5 13.7446 21.1049 14.6984 20.4016 15.4017C19.6984 16.1049 18.7446 16.5 17.75 16.5Z" fill="#FD5308"/>
</svg>
